<svg width="100%" height="100%" viewBox="0 0 200 40" fill="none" xmlns="http://www.w3.org/2000/svg">
  <path
    d="M15.38,16.48c2.31,0,3.55,1.72,3.55,3.85,0,.21-.05.65-.05.65h-6c.1,1.76,1.37,2.75,2.83,2.75s2.41-.96,2.41-.96l.68,1.12s-1.22,1.2-3.17,1.2c-2.6,0-4.37-1.87-4.37-4.31,0-2.62,1.79-4.31,4.13-4.31ZM17.3,19.83c-.05-1.37-.91-2.1-1.93-2.1-1.2,0-2.18.73-2.42,2.1h4.36ZM21.03,18.38c0-.24-.13-.36-.36-.36h-.67v-1.35h1.51c.7,0,1.04.31,1.04.91v.31c0,.26-.03.47-.03.47h.03c.33-.72,1.3-1.89,3.09-1.89,1.95,0,2.83,1.06,2.83,3.16v3.56c0,.24.13.36.36.36h.67v1.35h-1.56c-.73,0-1.04-.31-1.04-1.04v-3.87c0-1.15-.23-2.07-1.54-2.07s-2.28.83-2.6,2.02c-.11.33-.15.7-.15,1.11v3.85h-1.58v-6.52ZM31.07,22.59s.98,1.22,2.49,1.22c.76,0,1.43-.34,1.43-1.06,0-1.48-4.49-1.32-4.49-3.97,0-1.58,1.38-2.31,3.06-2.31.99,0,2.7.34,2.7,1.59v.78h-1.41v-.41c0-.49-.73-.7-1.24-.7-.93,0-1.53.33-1.53.98,0,1.56,4.49,1.22,4.49,3.97,0,1.46-1.3,2.41-3.02,2.41-2.2,0-3.28-1.45-3.28-1.45l.81-1.06ZM41.92,16.48c2.31,0,3.55,1.72,3.55,3.85,0,.21-.05.65-.05.65h-6c.1,1.76,1.37,2.75,2.83,2.75s2.41-.96,2.41-.96l.68,1.12s-1.22,1.2-3.17,1.2c-2.6,0-4.37-1.87-4.37-4.31,0-2.62,1.79-4.31,4.13-4.31ZM43.84,19.83c-.05-1.37-.91-2.1-1.93-2.1-1.2,0-2.18.73-2.42,2.1h4.36ZM47.56,18.38c0-.24-.13-.36-.36-.36h-.67v-1.35h1.51c.72,0,1.04.31,1.04.91v.31c0,.26-.02.47-.02.47h.03c.39-.96,1.53-1.89,2.81-1.89,1.4,0,2.2.63,2.47,1.87h.03c.46-.99,1.59-1.87,2.93-1.87,1.85,0,2.72,1.06,2.72,3.16v3.56c0,.24.13.36.36.36h.67v1.35h-1.56c-.73,0-1.04-.31-1.04-1.04v-3.89c0-1.15-.23-2.07-1.45-2.07-1.14,0-2.02.99-2.31,2.11-.08.34-.13.7-.13,1.12v3.76h-1.58v-4.93c0-1.07-.16-2.07-1.41-2.07s-2.05,1.01-2.36,2.18c-.08.33-.11.68-.11,1.06v3.76h-1.58v-6.52ZM62.73,15.13c0-.24-.13-.36-.36-.36h-.67v-1.35h1.56c.73,0,1.04.31,1.04,1.04v2.68c0,.39-.03.68-.03.68h.03s.72-1.35,2.65-1.35c2.21,0,3.61,1.76,3.61,4.31s-1.58,4.31-3.74,4.31c-1.84,0-2.59-1.38-2.59-1.38h-.03s.03.26.03.62v.57h-1.51v-9.77ZM66.6,23.74c1.3,0,2.37-1.07,2.37-2.94s-.96-2.94-2.34-2.94c-1.22,0-2.36.86-2.36,2.96,0,1.46.76,2.93,2.33,2.93ZM72.38,15.13c0-.24-.13-.36-.36-.36h-.67v-1.35h1.56c.73,0,1.04.31,1.04,1.04v8.73c0,.24.13.36.36.36h.67v1.35h-1.56c-.73,0-1.04-.31-1.04-1.04v-8.73ZM80.1,16.48c2.31,0,3.55,1.72,3.55,3.85,0,.21-.05.65-.05.65h-6c.1,1.76,1.37,2.75,2.83,2.75s2.41-.96,2.41-.96l.68,1.12s-1.22,1.2-3.17,1.2c-2.6,0-4.37-1.87-4.37-4.31,0-2.62,1.79-4.31,4.13-4.31ZM82.02,19.83c-.05-1.37-.91-2.1-1.93-2.1-1.2,0-2.18.73-2.42,2.1h4.36ZM131.9,32.56h-45.51V7.44h45.51v25.12ZM88.86,25.51h5.13v-1.65h-1.49v-5.92c.02-.44-.08-1.11-.08-1.11h.07s.2.61.44,1.01l5.05,7.68h2.21v-10.31h1.44v-1.67h-5.13v1.67h1.49v5.92c-.02.44.07,1.13.07,1.13h-.05s-.2-.62-.44-1.01l-5.05-7.71h-3.65v1.67h1.43v8.66h-1.43v1.65ZM103.15,25.51h9.15v-3.12h-1.89v1.35h-3.61v-3.38h3.95v-1.77h-3.95v-3.29h3.36v1.32h1.89v-3.09h-8.9v1.67h1.43v8.66h-1.43v1.65ZM113.35,15.2h1.1l2.55,10.31h2.48l2.01-7.56c.13-.49.19-1.1.19-1.1h.05s.05.61.19,1.1l2.01,7.56h2.48l2.55-10.31h1.1v-1.67h-4.68v1.67h1.4l-1.55,6.84c-.1.49-.14,1.05-.14,1.05h-.07s-.05-.56-.19-1.05l-2.24-8.51h-1.77l-2.24,8.51c-.14.49-.19,1.05-.19,1.05h-.07s-.03-.56-.14-1.05l-1.55-6.84h1.4v-1.67h-4.68v1.67ZM135.54,22.23s1.17,1.38,2.88,1.38c1.07,0,1.97-.65,1.97-1.71,0-2.41-5.55-2.03-5.55-5.61,0-1.72,1.51-3.07,3.68-3.07,1.22,0,3.27.55,3.27,2.11v.94h-1.5v-.54c0-.6-.86-1.04-1.77-1.04-1.24,0-2.02.68-2.02,1.54,0,2.33,5.53,1.81,5.53,5.58,0,1.76-1.37,3.27-3.64,3.27-2.44,0-3.81-1.71-3.81-1.71l.96-1.15ZM144.37,14.82h-1.06v-1.4h5.01c2.02,0,3.43,1.27,3.43,3.37,0,1.92-1.25,2.86-2.07,3.04v.03s.29.15.49.52l1.38,2.75c.16.34.42.37.81.37h.21v1.4h-.8c-.89,0-1.22-.11-1.59-.86l-1.56-3.09c-.29-.54-.5-.62-1.14-.62h-1.5v4.57h-1.63v-10.08ZM148.11,18.93c1.24,0,1.97-.8,1.97-2.08s-.73-2.03-1.93-2.03h-2.15v4.11h2.11ZM159.12,13.22c3.35,0,5.92,2.55,5.92,5.87,0,1.43-.52,2.76-1.35,3.77l1.32,1.28-.98,1.04-1.32-1.32c-.99.8-2.24,1.22-3.59,1.22-3.32,0-5.87-2.65-5.87-6s2.55-5.87,5.87-5.87ZM159.12,23.57c1.51,0,2.42-.8,2.42-.8l-1.27-1.24.98-1.06,1.25,1.28c.52-.72.85-1.68.85-2.67,0-2.49-1.85-4.34-4.23-4.34s-4.18,1.85-4.18,4.34,1.84,4.47,4.18,4.47Z"
    style="fill: #d9d9d9"
  />
</svg>
