<svg width="100%" height="100%" viewBox="0 0 200 40" fill="none" xmlns="http://www.w3.org/2000/svg">
  <path d="M11.64,26.43v-12.44h4.12l.71,9.35v1.81h.43v-1.81l.71-9.35h4.12v12.44h-2.13v-8.32l.21-2.84h-.43l-.92,11.16h-3.52l-.96-11.16h-.43l.21,2.84v8.32h-2.13ZM27.56,26.68c-1.42,0-2.54-.44-3.36-1.31-.82-.87-1.23-2.13-1.23-3.78v-2.77c0-1.6.41-2.85,1.23-3.74s1.94-1.34,3.36-1.34,2.54.45,3.36,1.34,1.23,2.14,1.23,3.74v2.77c0,1.65-.41,2.91-1.23,3.78-.82.87-1.94,1.31-3.36,1.31ZM27.56,24.55c.85,0,1.44-.26,1.76-.78.32-.52.48-1.2.48-2.03v-3.06c0-.52-.08-1-.23-1.42-.15-.43-.39-.76-.72-1.01-.33-.25-.75-.37-1.29-.37s-.97.12-1.3.37c-.33.25-.57.59-.72,1.01-.15.43-.22.9-.22,1.42v3.06c0,.83.16,1.5.48,2.03.32.52.91.78,1.76.78ZM34.55,26.43v-2.13h2.99v-4.55h-2.77v-2.13h5.01v6.68h2.56v2.13h-7.78ZM38.64,16.69c-.46,0-.86-.16-1.19-.49-.33-.33-.5-.73-.5-1.2s.17-.87.5-1.2c.33-.33.73-.49,1.19-.49s.86.16,1.19.49c.33.33.5.73.5,1.2s-.17.87-.5,1.2c-.33.33-.73.49-1.19.49ZM45.26,26.43v-8.81h2.24v1.31h.32c.2-.5.53-.88.98-1.16.45-.27.98-.41,1.58-.41.57,0,1.09.12,1.56.36.47.24.84.62,1.12,1.14.28.52.42,1.18.42,1.98v5.58h-2.24v-5.01c0-.63-.15-1.12-.45-1.48-.3-.36-.74-.54-1.31-.54-.65,0-1.14.22-1.47.67-.33.44-.5,1.04-.5,1.79v4.58h-2.24ZM59.39,26.68c-.72,0-1.37-.17-1.95-.52s-1.04-.86-1.39-1.53c-.34-.67-.52-1.48-.52-2.44v-.32c0-.95.18-1.76.54-2.43s.84-1.18,1.44-1.54,1.25-.53,1.96-.53,1.28.13,1.7.4c.42.27.74.64.97,1.13h.32v-4.9h2.24v12.44h-2.24v-1.28h-.32c-.18.39-.47.74-.88,1.06-.41.31-1.03.47-1.88.47ZM60.12,24.55c.7,0,1.26-.22,1.7-.67.43-.44.65-1.03.65-1.75v-.21c0-.72-.22-1.31-.65-1.75-.43-.44-1-.67-1.7-.67s-1.25.22-1.69.66c-.44.44-.66,1.02-.66,1.76v.21c0,.73.22,1.32.66,1.76.44.44,1,.66,1.69.66ZM67.17,26.43v-2.13h2.99v-4.55h-2.77v-2.13h5.01v6.68h2.56v2.13h-7.78ZM71.26,16.69c-.46,0-.86-.16-1.19-.49-.33-.33-.5-.73-.5-1.2s.17-.87.5-1.2c.33-.33.73-.49,1.19-.49s.86.16,1.19.49c.33.33.5.73.5,1.2s-.17.87-.5,1.2c-.33.33-.73.49-1.19.49Z" style="fill: #d9d9d9"/>
</svg>