<svg width="100%" height="100%" viewBox="0 0 200 40" fill="none" xmlns="http://www.w3.org/2000/svg">
  <path
    d="M20.67,15.1h-1.51c-.21,0-.38.17-.38.38v7.53c0,.21.17.38.38.38s.38-.17.38-.38v-7.16h1.13c.62,0,1.13.51,1.13,1.13v.75c0,.49-.32.91-.75,1.06v-1.82c0-.21-.17-.38-.38-.38s-.38.17-.38.38v6.03c0,.21.17.38.38.38s.38-.17.38-.38v-3.32c.44.16.75.57.75,1.06v3.01c0,.21.17.38.38.38s.38-.17.38-.38v-3.01c0-.62-.3-1.16-.76-1.51.46-.34.76-.89.76-1.51v-.75c0-1.04-.84-1.88-1.88-1.88ZM28.2,12.09c-1.04,0-1.88.84-1.88,1.88v12.05c0,1.04.84,1.88,1.88,1.88s1.88-.84,1.88-1.88v-5.27c0-.21-.17-.38-.38-.38s-.38.17-.38.38v5.27c0,.62-.51,1.13-1.13,1.13s-1.13-.51-1.13-1.13v-12.05c0-.62.51-1.13,1.13-1.13s1.13.51,1.13,1.13v5.27c0,.21.17.38.38.38s.38-.17.38-.38v-5.27c0-1.04-.84-1.88-1.88-1.88ZM35.73,12.09c-1.04,0-1.88.84-1.88,1.88v14.31c0,.21.17.38.38.38s.38-.17.38-.38v-14.31c0-.62.51-1.13,1.13-1.13s1.13.51,1.13,1.13v12.05c0,.21.17.38.38.38s.38-.17.38-.38v-12.05c0-1.04-.84-1.88-1.88-1.88ZM44.02,16.61c-.13,0-.26.02-.38.07v-.44c0-.62-.51-1.13-1.13-1.13s-1.13.51-1.13,1.13v7.53c0,.21.17.38.38.38s.38-.17.38-.38v-7.53c0-.21.17-.38.38-.38s.38.17.38.38v7.53c0,.21.17.38.38.38s.38-.17.38-.38v-6.03c0-.21.17-.38.38-.38s.38.17.38.38v4.52c0,.21.17.38.38.38s.38-.17.38-.38v-4.52c0-.62-.51-1.13-1.13-1.13ZM13.51,19.25v1.51c0,.21-.17.38-.38.38s-.38-.17-.38-.38v-1.51c0-.21.17-.38.38-.38s.38.17.38.38ZM14.64,17.36c-.21,0-.38.17-.38.38v4.52c0,.21.17.38.38.38s.38-.17.38-.38v-4.52c0-.21-.17-.38-.38-.38ZM16.15,15.1c-.21,0-.38.17-.38.38v9.04c0,.21.17.38.38.38s.38-.17.38-.38v-9.04c0-.21-.17-.38-.38-.38ZM17.66,18.12c-.21,0-.38.17-.38.38v3.01c0,.21.17.38.38.38s.38-.17.38-.38v-3.01c0-.21-.17-.38-.38-.38ZM11.36,19.73c-.07.07-.11.17-.11.27,0,.05.01.1.03.14.02.05.05.09.08.12.07.07.17.11.27.11s.2-.04.27-.11c.03-.04.06-.08.08-.12.02-.05.03-.09.03-.14,0-.1-.04-.2-.11-.27-.14-.14-.39-.14-.53,0ZM23.68,14.35c-.21,0-.38.17-.38.38v10.55c0,.21.17.38.38.38s.38-.17.38-.38v-10.55c0-.21-.17-.38-.38-.38ZM25.19,16.61c-.21,0-.38.17-.38.38v6.03c0,.21.17.38.38.38s.38-.17.38-.38v-6.03c0-.21-.17-.38-.38-.38ZM27.83,13.97v12.05c0,.21.17.38.38.38s.38-.17.38-.38v-12.05c0-.21-.17-.38-.38-.38s-.38.17-.38.38ZM35.73,13.6c-.21,0-.38.17-.38.38v12.81c0,.21.17.38.38.38s.38-.17.38-.38v-12.81c0-.21-.17-.38-.38-.38ZM31.22,8.32c-.21,0-.38.17-.38.38v19.59c0,.21.17.38.38.38s.38-.17.38-.38V8.7c0-.21-.17-.38-.38-.38ZM32.72,11.34c-.21,0-.38.17-.38.38v19.59c0,.21.17.38.38.38s.38-.17.38-.38V11.71c0-.21-.17-.38-.38-.38ZM38.75,16.61c-.21,0-.38.17-.38.38v6.03c0,.21.17.38.38.38s.38-.17.38-.38v-6.03c0-.21-.17-.38-.38-.38ZM40.25,14.35c-.21,0-.38.17-.38.38v10.55c0,.21.17.38.38.38s.38-.17.38-.38v-10.55c0-.21-.17-.38-.38-.38ZM46.28,18.87c-.21,0-.38.17-.38.38v1.51c0,.21.17.38.38.38s.38-.17.38-.38v-1.51c0-.21-.17-.38-.38-.38ZM47.79,16.61c-.21,0-.38.17-.38.38v6.03c0,.21.17.38.38.38s.38-.17.38-.38v-6.03c0-.21-.17-.38-.38-.38ZM49.29,18.87c-.21,0-.38.17-.38.38v1.51c0,.21.17.38.38.38s.38-.17.38-.38v-1.51c0-.21-.17-.38-.38-.38ZM50.8,18.12c-.21,0-.38.17-.38.38v3.01c0,.21.17.38.38.38s.38-.17.38-.38v-3.01c0-.21-.17-.38-.38-.38ZM52.57,19.73s-.08-.06-.12-.08c-.09-.04-.2-.04-.29,0-.05.02-.09.05-.12.08-.07.07-.11.17-.11.27,0,.05.01.1.03.14.02.05.05.09.08.12.04.03.08.06.12.08.05.02.09.03.14.03s.1,0,.14-.03c.05-.02.09-.05.12-.08.03-.04.06-.08.08-.12.02-.05.03-.09.03-.14,0-.1-.04-.2-.11-.27ZM67.66,8.58c.86,0,1.97.14,2.81,1.02.66.67.98,1.67.98,2.59,0,.98-.34,1.85-.91,2.4-.45.43-1.05.69-1.59.79l3.6,4.71h-3.71l-2.86-4.41v4.41h-2.98v-11.5h4.66ZM65.98,13.74h.57c.45,0,1.09-.12,1.45-.47.22-.22.38-.6.38-.97s-.14-.72-.4-.97c-.28-.28-.78-.45-1.43-.45h-.57v2.85ZM85.91,18.64c-1.17,1.12-2.83,1.71-4.54,1.71s-3.36-.59-4.54-1.71c-1.22-1.17-1.81-2.78-1.81-4.29s.59-3.16,1.81-4.31c1.17-1.12,2.83-1.71,4.54-1.71s3.36.59,4.54,1.71c1.22,1.16,1.81,2.78,1.81,4.31s-.59,3.12-1.81,4.29ZM79.04,12.13c-.62.6-.91,1.45-.91,2.26,0,1.02.48,1.72.91,2.14.55.53,1.33.91,2.33.91s1.78-.36,2.31-.9c.53-.53.93-1.33.93-2.21s-.4-1.69-.93-2.21c-.64-.6-1.52-.91-2.31-.91s-1.71.29-2.33.91ZM99.71,19.77c-1.19.43-1.85.57-2.59.57-2,0-3.5-.79-4.45-1.72-1.12-1.12-1.74-2.69-1.74-4.19,0-1.64.71-3.19,1.74-4.24,1.02-1.03,2.55-1.79,4.35-1.79.55,0,1.45.09,2.69.59v3.57c-.97-1.19-2.1-1.26-2.6-1.26-.86,0-1.52.26-2.07.76-.71.66-1,1.55-1,2.36s.33,1.67.93,2.24c.5.47,1.29.79,2.14.79.45,0,1.55-.05,2.6-1.21v3.53ZM107.5,13.32l3.66-4.74h3.69l-4.57,5.45,4.98,6.05h-3.86l-3.9-4.98v4.98h-2.98v-11.5h2.98v4.74ZM125.1,11.12h-3.55v1.91h3.36v2.53h-3.36v1.98h3.55v2.53h-6.54v-11.5h6.54v2.53ZM134.64,11.12v8.97h-2.98v-8.97h-2.45v-2.53h7.88v2.53h-2.45ZM155.54,19.77c-1.19.43-1.84.57-2.59.57-2,0-3.5-.79-4.45-1.72-1.12-1.12-1.74-2.69-1.74-4.19,0-1.64.71-3.19,1.74-4.24,1.02-1.03,2.55-1.79,4.35-1.79.55,0,1.45.09,2.69.59v3.57c-.97-1.19-2.1-1.26-2.6-1.26-.86,0-1.52.26-2.07.76-.71.66-1,1.55-1,2.36s.33,1.67.93,2.24c.5.47,1.29.79,2.14.79.45,0,1.55-.05,2.6-1.21v3.53ZM163.07,8.58v11.5h-2.98v-11.5h2.98ZM172.32,11.12v8.97h-2.98v-8.97h-2.45v-2.53h7.88v2.53h-2.45ZM181.06,14.57l-4.16-5.98h3.57l2.17,3.14,2.09-3.14h3.62l-4.29,5.98v5.52h-3v-5.52ZM63,31.35v-5.37l3.65,3.82v-3.49h.77v5.34l-3.65-3.82v3.52h-.77ZM81.91,27.04h-2.01v1.27h1.95v.72h-1.95v1.58h2.01v.72h-2.78v-5.03h2.78v.72ZM93.67,26.32l1.33,3.36,1.36-3.61,1.31,3.61,1.37-3.36h.83l-2.25,5.36-1.31-3.57-1.33,3.57-2.14-5.36h.83ZM123.13,31.35l1.06-5.41,1.75,3.91,1.77-3.91.95,5.41h-.78l-.51-3.03-1.46,3.27-1.45-3.27-.53,3.04h-.78ZM140.99,26.32v3.03c0,.27,0,.6.16.87.15.26.49.52.94.52s.78-.26.94-.52c.15-.26.16-.6.16-.87v-3.03h.77v3.24c0,.4-.08.88-.47,1.31-.26.29-.71.59-1.4.59s-1.13-.3-1.4-.59c-.38-.42-.47-.91-.47-1.31v-3.24h.77ZM157.83,27.44c-.05-.11-.11-.22-.23-.32-.16-.13-.32-.18-.54-.18-.47,0-.71.28-.71.6,0,.15.05.41.54.61l.51.2c.93.38,1.18.91,1.18,1.48,0,.96-.68,1.61-1.62,1.61-.58,0-.93-.22-1.18-.51-.27-.3-.39-.63-.42-.98l.76-.17c0,.25.09.48.21.64.14.18.35.3.66.3.47,0,.83-.34.83-.84s-.39-.72-.72-.86l-.48-.2c-.41-.17-1.03-.52-1.03-1.27,0-.68.53-1.33,1.47-1.33.54,0,.85.2,1.01.34.14.12.28.29.38.51l-.62.36ZM170.83,26.32v5.03h-.77v-5.03h.77ZM186.27,27.5c-.56-.51-1.08-.56-1.37-.56-1.09,0-1.83.81-1.83,1.92s.77,1.89,1.84,1.89c.6,0,1.07-.31,1.36-.58v.91c-.51.3-1.03.38-1.38.38-.91,0-1.49-.41-1.78-.69-.59-.55-.81-1.19-.81-1.9,0-.93.38-1.57.81-1.97.52-.49,1.12-.66,1.82-.66.46,0,.91.08,1.34.36v.91Z"
    style="fill: #d9d9d9"
  />
</svg>
